<?xml version="1.0" encoding="UTF-8" standalone="no"?>
<!-- Created with Inkscape (http://www.inkscape.org/) -->

<svg
   xmlns:dc="http://purl.org/dc/elements/1.1/"
   xmlns:cc="http://creativecommons.org/ns#"
   xmlns:rdf="http://www.w3.org/1999/02/22-rdf-syntax-ns#"
   xmlns:svg="http://www.w3.org/2000/svg"
   xmlns="http://www.w3.org/2000/svg"
   xmlns:sodipodi="http://sodipodi.sourceforge.net/DTD/sodipodi-0.dtd"
   xmlns:inkscape="http://www.inkscape.org/namespaces/inkscape"
   width="27.93244mm"
   height="27.93244mm"
   viewBox="0 0 27.93244 27.93244"
   version="1.1"
   id="svg8"
   inkscape:version="0.92.4 (5da689c313, 2019-01-14)"
   sodipodi:docname="icon-circle.svg">
  <defs
     id="defs2" />
  <sodipodi:namedview
     id="base"
     pagecolor="#ffffff"
     bordercolor="#666666"
     borderopacity="1.0"
     inkscape:pageopacity="0.0"
     inkscape:pageshadow="2"
     inkscape:zoom="5.6"
     inkscape:cx="22.009762"
     inkscape:cy="33.236064"
     inkscape:document-units="mm"
     inkscape:current-layer="layer1"
     showgrid="false"
     inkscape:window-width="1920"
     inkscape:window-height="1017"
     inkscape:window-x="1272"
     inkscape:window-y="-8"
     inkscape:window-maximized="1"
     showguides="false"
     inkscape:snap-page="false" />
  <metadata
     id="metadata5">
    <rdf:RDF>
      <cc:Work
         rdf:about="">
        <dc:format>image/svg+xml</dc:format>
        <dc:type
           rdf:resource="http://purl.org/dc/dcmitype/StillImage" />
        <dc:title />
      </cc:Work>
    </rdf:RDF>
  </metadata>
  <g
     inkscape:label="Layer 1"
     inkscape:groupmode="layer"
     id="layer1"
     transform="translate(0.17306781,5.1066387)">
    <circle
       style="opacity:1;vector-effect:none;fill:#d5f6ff;fill-opacity:1;fill-rule:evenodd;stroke:#006680;stroke-width:0.5291667;stroke-linecap:round;stroke-linejoin:round;stroke-miterlimit:4;stroke-dasharray:3.175, 0.52916667;stroke-dashoffset:5.29166603;stroke-opacity:1;paint-order:markers stroke fill"
       id="path816"
       cx="13.793152"
       cy="8.859581"
       r="13.701636" />
    <path
       style="opacity:1;fill:#006680;fill-opacity:1;stroke-width:0;stroke-miterlimit:4;stroke-dasharray:none;paint-order:fill markers stroke"
       d="M 17.466309,-0.19445521 C 16.976357,-0.22905762 16.381092,0.27736773 16.047274,1.0530138 L 9.6735032,15.862962 c -0.3815064,0.886453 -0.2724899,1.779477 0.2444295,2.001946 0.5169193,0.222468 1.2400993,-0.312441 1.6216063,-1.198894 L 17.91331,1.8560655 C 18.294816,0.96961289 18.1858,0.07710625 17.66888,-0.1453626 17.60427,-0.1731712 17.536302,-0.189512 17.466309,-0.19445521 Z M 8.4678919,1.3537706 c -0.2535518,-0.00597 -0.509107,0.08521 -0.707967,0.2749186 L 1.0936652,7.9885077 C 0.69594491,8.3679253 0.68117481,8.9932854 1.0605923,9.391006 l 6.3593017,6.66626 c 0.3794176,0.39772 1.0052947,0.412493 1.4030151,0.03307 0.3977203,-0.379418 0.4124904,-1.004778 0.033073,-1.402498 L 3.1808763,8.7393661 9.1293503,3.0647773 C 9.5270706,2.6853598 9.5418407,2.0594825 9.1624232,1.6617622 8.9727143,1.462902 8.7214437,1.3597422 8.4678919,1.3537706 Z m 11.0039791,0 c -0.253611,-0.00598 -0.509624,0.085209 -0.708484,0.2749186 -0.397721,0.379417 -0.412494,1.0047784 -0.03307,1.4024985 l 5.675106,5.9484741 -5.948474,5.6745892 c -0.39772,0.379417 -0.412493,1.005295 -0.03307,1.403015 0.189708,0.19886 0.440979,0.30202 0.694531,0.307992 0.253552,0.006 0.509108,-0.08521 0.707968,-0.274919 l 6.666259,-6.3598188 c 0.397721,-0.379417 0.412494,-1.0047783 0.03307,-1.4024983 L 20.166402,1.6617622 C 19.976693,1.4629021 19.725483,1.3597506 19.471871,1.3537706 Z"
       id="rect816"
       inkscape:connector-curvature="0" />
  </g>
</svg>
