<?xml version="1.0" encoding="UTF-8" standalone="no"?>
<!-- Created with Inkscape (http://www.inkscape.org/) -->

<svg
   xmlns:dc="http://purl.org/dc/elements/1.1/"
   xmlns:cc="http://creativecommons.org/ns#"
   xmlns:rdf="http://www.w3.org/1999/02/22-rdf-syntax-ns#"
   xmlns:svg="http://www.w3.org/2000/svg"
   xmlns="http://www.w3.org/2000/svg"
   xmlns:sodipodi="http://sodipodi.sourceforge.net/DTD/sodipodi-0.dtd"
   xmlns:inkscape="http://www.inkscape.org/namespaces/inkscape"
   width="277.83823mm"
   height="26.51054mm"
   viewBox="0 0 277.83824 26.51054"
   version="1.1"
   id="svg8"
   inkscape:version="0.92.4 (5da689c313, 2019-01-14)"
   sodipodi:docname="all-letters.svg">
  <defs
     id="defs2" />
  <sodipodi:namedview
     id="base"
     pagecolor="#ffffff"
     bordercolor="#666666"
     borderopacity="1.0"
     inkscape:pageopacity="0.0"
     inkscape:pageshadow="2"
     inkscape:zoom="0.64"
     inkscape:cx="575.68028"
     inkscape:cy="111.24616"
     inkscape:document-units="mm"
     inkscape:current-layer="layer1"
     showgrid="true"
     inkscape:window-width="1920"
     inkscape:window-height="1017"
     inkscape:window-x="1272"
     inkscape:window-y="-8"
     inkscape:window-maximized="1"
     showguides="false" />
  <metadata
     id="metadata5">
    <rdf:RDF>
      <cc:Work
         rdf:about="">
        <dc:format>image/svg+xml</dc:format>
        <dc:type
           rdf:resource="http://purl.org/dc/dcmitype/StillImage" />
        <dc:title />
      </cc:Work>
    </rdf:RDF>
  </metadata>
  <g
     inkscape:label="Layer 1"
     inkscape:groupmode="layer"
     id="layer1"
     transform="translate(81.928853,-265.12419)">
    <path
       style="opacity:1;vector-effect:none;fill:#1ccbd2;fill-opacity:1;fill-rule:evenodd;stroke-width:0.53141356;stroke-linecap:butt;stroke-linejoin:miter;stroke-miterlimit:4;stroke-dasharray:none;stroke-dashoffset:0;stroke-opacity:1"
       d="m 110.09933,265.29525 v 14.03687 0.24805 h 0.006 a 12.42179,12.42179 0 0 0 6.2053,10.50891 12.42179,12.42179 0 0 0 3.56516,1.3746 v -5.11028 a 7.4531,7.603798 0 0 1 -1.08107,-0.51884 7.4531,7.603798 0 0 1 -3.72277,-6.4332 h -0.004 v -0.15193 -13.95418 z m 19.87475,0 v 13.95418 0.15193 h -0.008 a 7.4531,7.603798 0 0 1 -3.71864,6.4332 7.4531,7.603798 0 0 1 -1.08055,0.51315 v 5.10563 a 12.42179,12.42179 0 0 0 3.56464,-1.36426 12.42179,12.42179 0 0 0 6.19859,-10.50891 h 0.0124 v -0.24805 -14.03687 z"
       id="path847"
       inkscape:connector-curvature="0" />
    <path
       style="opacity:1;vector-effect:none;fill:#1ccbd2;fill-opacity:1;fill-rule:evenodd;stroke-width:0.241404;stroke-linecap:butt;stroke-linejoin:miter;stroke-miterlimit:4;stroke-dasharray:none;stroke-dashoffset:0;stroke-opacity:1"
       d="m 157.50498,265.21179 v 5.32629 a 7.9375,7.9375 0 0 1 4.97593,2.75384 l 4.0597,-3.40651 a 13.229128,13.229128 0 0 0 -9.03563,-4.67362 z m -5.29166,0.64182 a 13.229128,13.229128 0 0 0 -0.33125,0.10387 13.229128,13.229128 0 0 0 -8.70438,12.43128 13.229128,13.229128 0 0 0 8.70438,12.4318 13.229128,13.229128 0 0 0 0.33125,0.10077 v -5.80843 a 7.9375,7.9375 0 0 1 -3.74396,-6.72414 7.9375,7.9375 0 0 1 3.74396,-6.73034 z m 9.03562,11.8799 v 6.93756 a 7.9375,7.9375 0 0 1 -3.74396,1.57148 v 5.30458 a 13.229128,13.229128 0 0 0 9.03563,-4.65449 v -9.15913 z"
       id="path815"
       inkscape:connector-curvature="0" />
    <path
       style="opacity:1;fill:#1ccbd2;fill-opacity:1;fill-rule:evenodd;stroke-width:0;stroke-miterlimit:4;stroke-dasharray:none;paint-order:fill markers stroke"
       d="m 174.77578,265.1503 v 26.45833 h 5.29167 V 281.0253 h 5.26944 v -5.29167 h -5.26944 V 265.1503 Z m 15.85278,0 v 26.45833 h 5.28081 V 265.1503 Z"
       id="rect815"
       inkscape:connector-curvature="0" />
    <path
       style="opacity:1;vector-effect:none;fill:#1ccbd2;fill-opacity:1;fill-rule:evenodd;stroke-width:0.29429674;stroke-linecap:butt;stroke-linejoin:miter;stroke-miterlimit:4;stroke-dasharray:none;stroke-dashoffset:0;stroke-opacity:1"
       d="m 88.634986,265.15029 a 13.229167,13.229167 0 0 0 -13.22916,13.22917 13.229167,13.229167 0 0 0 2.20813,7.27966 l 3.87005,-3.87005 a 7.9375,7.9375 0 0 1 -0.78652,-3.40961 7.9375,7.9375 0 0 1 7.9375,-7.9375 7.9375,7.9375 0 0 1 3.41323,0.78289 l 3.86075,-3.86074 a 13.229167,13.229167 0 0 0 -7.27398,-2.21382 z m 11.02052,5.95054 -3.86953,3.86953 a 7.9375,7.9375 0 0 1 0.78651,3.4091 7.9375,7.9375 0 0 1 -7.9375,7.9375 7.9375,7.9375 0 0 1 -3.41374,-0.78187 l -3.86023,3.86023 a 13.229167,13.229167 0 0 0 7.27397,2.2133 13.229167,13.229167 0 0 0 13.229174,-13.22916 13.229167,13.229167 0 0 0 -2.208654,-7.27863 z"
       id="path816"
       inkscape:connector-curvature="0" />
    <path
       style="opacity:1;vector-effect:none;fill:#006680;fill-opacity:1;fill-rule:evenodd;stroke-width:0.29429674;stroke-linecap:butt;stroke-linejoin:miter;stroke-miterlimit:4;stroke-dasharray:none;stroke-dashoffset:0;stroke-opacity:1"
       d="m -35.903218,265.1503 a 13.229167,13.229167 0 0 0 -13.229167,13.22917 13.229167,13.229167 0 0 0 2.208134,7.27966 l 3.870048,-3.87005 a 7.9375,7.9375 0 0 1 -0.786515,-3.40961 7.9375,7.9375 0 0 1 7.9375,-7.9375 7.9375,7.9375 0 0 1 3.413228,0.78289 l 3.860746,-3.86074 a 13.229167,13.229167 0 0 0 -7.273974,-2.21382 z m 11.020516,5.95054 -3.869532,3.86953 a 7.9375,7.9375 0 0 1 0.786516,3.4091 7.9375,7.9375 0 0 1 -7.9375,7.9375 7.9375,7.9375 0 0 1 -3.413745,-0.78188 l -3.86023,3.86024 a 13.229167,13.229167 0 0 0 7.273975,2.2133 13.229167,13.229167 0 0 0 13.229166,-13.22916 13.229167,13.229167 0 0 0 -2.20865,-7.27863 z"
       id="path816-8"
       inkscape:connector-curvature="0" />
    <path
       style="opacity:1;fill:#1ccbd2;fill-opacity:1;stroke-width:0;stroke-miterlimit:4;stroke-dasharray:none;paint-order:fill markers stroke"
       d="m 45.33271,265.1242 v 1.64641 l 5.29166,7.95197 5.93556,8.91935 5.31905,7.9928 h 5.29167 v -1.59422 l -5.29167,-7.95145 v -5.3e-4 l -5.66993,-8.5204 -5.58468,-8.39174 v -0.0522 z m 16.54627,0.0522 v 7.36648 l 5.29167,7.95196 V 265.1764 Z m -16.54627,11.14093 v 15.26521 h 5.29166 v -7.31376 z"
       id="rect872"
       inkscape:connector-curvature="0" />
    <path
       style="opacity:1;vector-effect:none;fill:#006680;fill-opacity:1;fill-rule:evenodd;stroke-width:0.91200423;stroke-linecap:butt;stroke-linejoin:miter;stroke-miterlimit:4;stroke-dasharray:none;stroke-dashoffset:0;stroke-opacity:1"
       d="m -68.391695,265.1599 a 13.316816,13.229166 0 0 0 -3.955314,0.44132 13.316816,13.229166 0 0 0 -9.581844,10.13219 h 5.473051 a 7.9375,7.9375 0 0 1 7.467761,-5.29115 7.9375,7.9375 0 0 1 6.898804,4.03128 l 4.721675,-2.70836 A 13.316816,13.229166 0 0 0 -68.391695,265.1599 Z M -81.9149,281.02508 a 13.316816,13.229166 0 0 0 9.567891,10.13272 13.316816,13.229166 0 0 0 14.979447,-6.16345 l -4.718058,-2.70578 a 7.9375,7.9375 0 0 1 -6.902421,4.02869 7.9375,7.9375 0 0 1 -7.470862,-5.29218 z"
       id="path828-2"
       inkscape:connector-curvature="0" />
    <path
       style="opacity:1;vector-effect:none;fill:#006680;fill-opacity:1;fill-rule:evenodd;stroke-width:0.30867916;stroke-linecap:butt;stroke-linejoin:miter;stroke-miterlimit:4;stroke-dasharray:none;stroke-dashoffset:0;stroke-opacity:1"
       d="m -14.438875,265.1504 v 10.58333 h 4.5961017 v -5.29166 h 4.435388 0.149345 v 0.008 a 7.4634011,7.9375643 0 0 1 6.3138232,3.96049 7.4634011,7.9375643 0 0 1 0.5674079,1.32291 h 4.7485471 a 13.229108,13.229108 0 0 0 -1.492415,-3.96875 13.229108,13.229108 0 0 0 -11.1915622,-6.60114 v -0.0134 h -0.264584 z m 0,15.875 v 10.58333 h 7.8620517 0.264584 v -0.006 a 13.229108,13.229108 0 0 0 11.1915622,-6.60838 13.229108,13.229108 0 0 0 1.493449,-3.96875 H 1.6195728 a 7.4634011,7.9375643 0 0 1 -0.5637899,1.32292 7.4634011,7.9375643 0 0 1 -6.3138232,3.96513 v 0.004 h -0.149345 -4.435388 v -5.29167 z"
       id="path817-9"
       inkscape:connector-curvature="0" />
    <g
       id="g854"
       transform="translate(13.295379,1.4685593e-5)">
      <rect
         y="265.15027"
         x="1.3125753"
         height="5.2916665"
         width="11.244792"
         id="rect821"
         style="opacity:1;fill:#006680;fill-opacity:1;fill-rule:nonzero;stroke:none;stroke-width:0.59883428;stroke-linecap:round;stroke-linejoin:round;stroke-miterlimit:4;stroke-dasharray:none;stroke-dashoffset:0;stroke-opacity:1;paint-order:markers stroke fill" />
      <rect
         y="286.31696"
         x="1.3125753"
         height="5.2916665"
         width="11.244792"
         id="rect821-3"
         style="opacity:1;fill:#006680;fill-opacity:1;fill-rule:nonzero;stroke:none;stroke-width:0.59883428;stroke-linecap:round;stroke-linejoin:round;stroke-miterlimit:4;stroke-dasharray:none;stroke-dashoffset:0;stroke-opacity:1;paint-order:markers stroke fill" />
      <rect
         y="275.73361"
         x="1.3125753"
         height="5.2916665"
         width="11.244792"
         id="rect821-37"
         style="opacity:1;fill:#006680;fill-opacity:1;fill-rule:nonzero;stroke:none;stroke-width:0.59883428;stroke-linecap:round;stroke-linejoin:round;stroke-miterlimit:4;stroke-dasharray:none;stroke-dashoffset:0;stroke-opacity:1;paint-order:markers stroke fill" />
      <rect
         y="265.15027"
         x="12.557367"
         height="5.2916665"
         width="11.244792"
         id="rect821-2"
         style="opacity:1;fill:#1ccbd2;fill-opacity:1;fill-rule:nonzero;stroke:none;stroke-width:0.59883428;stroke-linecap:round;stroke-linejoin:round;stroke-miterlimit:4;stroke-dasharray:none;stroke-dashoffset:0;stroke-opacity:1;paint-order:markers stroke fill" />
      <rect
         y="286.31696"
         x="12.557367"
         height="5.2916665"
         width="11.244792"
         id="rect821-3-2"
         style="opacity:1;fill:#1ccbd2;fill-opacity:1;fill-rule:nonzero;stroke:none;stroke-width:0.59883428;stroke-linecap:round;stroke-linejoin:round;stroke-miterlimit:4;stroke-dasharray:none;stroke-dashoffset:0;stroke-opacity:1;paint-order:markers stroke fill" />
      <rect
         y="275.73361"
         x="12.557367"
         height="5.2916665"
         width="11.244792"
         id="rect821-37-1"
         style="opacity:1;fill:#1ccbd2;fill-opacity:1;fill-rule:nonzero;stroke:none;stroke-width:0.59883428;stroke-linecap:round;stroke-linejoin:round;stroke-miterlimit:4;stroke-dasharray:none;stroke-dashoffset:0;stroke-opacity:1;paint-order:markers stroke fill" />
    </g>
  </g>
</svg>
