<?xml version="1.0" encoding="UTF-8" standalone="no"?>
<!-- Created with Inkscape (http://www.inkscape.org/) -->

<svg
   xmlns:dc="http://purl.org/dc/elements/1.1/"
   xmlns:cc="http://creativecommons.org/ns#"
   xmlns:rdf="http://www.w3.org/1999/02/22-rdf-syntax-ns#"
   xmlns:svg="http://www.w3.org/2000/svg"
   xmlns="http://www.w3.org/2000/svg"
   xmlns:sodipodi="http://sodipodi.sourceforge.net/DTD/sodipodi-0.dtd"
   xmlns:inkscape="http://www.inkscape.org/namespaces/inkscape"
   width="24.561291mm"
   height="26.45837mm"
   viewBox="0 0 24.561291 26.45837"
   version="1.1"
   id="svg8"
   inkscape:version="0.92.4 (5da689c313, 2019-01-14)"
   sodipodi:docname="c-extrude-thick-horizontal.svg">
  <defs
     id="defs2" />
  <sodipodi:namedview
     id="base"
     pagecolor="#ffffff"
     bordercolor="#666666"
     borderopacity="1.0"
     inkscape:pageopacity="0.0"
     inkscape:pageshadow="2"
     inkscape:zoom="0.98994949"
     inkscape:cx="-293.59265"
     inkscape:cy="48.995472"
     inkscape:document-units="mm"
     inkscape:current-layer="layer1"
     showgrid="false"
     inkscape:window-width="1920"
     inkscape:window-height="1017"
     inkscape:window-x="1272"
     inkscape:window-y="-8"
     inkscape:window-maximized="1"
     showguides="false" />
  <metadata
     id="metadata5">
    <rdf:RDF>
      <cc:Work
         rdf:about="">
        <dc:format>image/svg+xml</dc:format>
        <dc:type
           rdf:resource="http://purl.org/dc/dcmitype/StillImage" />
        <dc:title />
      </cc:Work>
    </rdf:RDF>
  </metadata>
  <g
     inkscape:label="Layer 1"
     inkscape:groupmode="layer"
     id="layer1"
     transform="translate(2.1760945,-1.8876128e-4)">
    <path
       style="opacity:1;vector-effect:none;fill:#000000;fill-opacity:1;fill-rule:evenodd;stroke-width:3.44694519;stroke-linecap:butt;stroke-linejoin:miter;stroke-miterlimit:4;stroke-dasharray:none;stroke-dashoffset:0;stroke-opacity:1"
       d="M 42.939453,0.03710937 A 50.331273,49.999997 0 0 0 27.990234,1.7050781 50.331273,49.999997 0 0 0 -8.2246094,40 H 12.460938 A 30,30 0 0 1 40.685547,20.001953 30,30 0 0 1 66.759766,35.238281 L 84.605469,25.001953 A 50.331273,49.999997 0 0 0 42.939453,0.03710937 Z M -8.171875,60 A 50.331273,49.999997 0 0 0 27.990234,98.296875 50.331273,49.999997 0 0 0 84.605469,75.001953 L 66.773438,64.775391 A 30,30 0 0 1 40.685547,80.001953 30,30 0 0 1 12.449219,60 Z"
       transform="scale(0.26458333)"
       id="path828"
       inkscape:connector-curvature="0" />
  </g>
</svg>
