<?xml version="1.0" encoding="UTF-8" standalone="no"?>
<!-- Created with Inkscape (http://www.inkscape.org/) -->

<svg
   xmlns:dc="http://purl.org/dc/elements/1.1/"
   xmlns:cc="http://creativecommons.org/ns#"
   xmlns:rdf="http://www.w3.org/1999/02/22-rdf-syntax-ns#"
   xmlns:svg="http://www.w3.org/2000/svg"
   xmlns="http://www.w3.org/2000/svg"
   xmlns:sodipodi="http://sodipodi.sourceforge.net/DTD/sodipodi-0.dtd"
   xmlns:inkscape="http://www.inkscape.org/namespaces/inkscape"
   width="24.817091mm"
   height="26.45837mm"
   viewBox="0 0 24.817091 26.45837"
   version="1.1"
   id="svg8"
   inkscape:version="0.92.4 (5da689c313, 2019-01-14)"
   sodipodi:docname="c-extrude-horizontal.svg">
  <defs
     id="defs2" />
  <sodipodi:namedview
     id="base"
     pagecolor="#ffffff"
     bordercolor="#666666"
     borderopacity="1.0"
     inkscape:pageopacity="0.0"
     inkscape:pageshadow="2"
     inkscape:zoom="0.98994949"
     inkscape:cx="-129.58625"
     inkscape:cy="48.994758"
     inkscape:document-units="mm"
     inkscape:current-layer="layer1"
     showgrid="false"
     inkscape:window-width="1920"
     inkscape:window-height="1017"
     inkscape:window-x="1272"
     inkscape:window-y="-8"
     inkscape:window-maximized="1"
     showguides="false" />
  <metadata
     id="metadata5">
    <rdf:RDF>
      <cc:Work
         rdf:about="">
        <dc:format>image/svg+xml</dc:format>
        <dc:type
           rdf:resource="http://purl.org/dc/dcmitype/StillImage" />
        <dc:title />
      </cc:Work>
    </rdf:RDF>
  </metadata>
  <g
     inkscape:label="Layer 1"
     inkscape:groupmode="layer"
     id="layer1">
    <path
       style="opacity:1;vector-effect:none;fill:#000000;fill-opacity:1;fill-rule:evenodd;stroke-width:0.91200423;stroke-linecap:butt;stroke-linejoin:miter;stroke-miterlimit:4;stroke-dasharray:none;stroke-dashoffset:0;stroke-opacity:1"
       d="M 13.792956,0.00962972 A 13.316816,13.229166 0 0 0 9.8376421,0.45094672 13.316816,13.229166 0 0 0 0,12.567519 H 5.2921825 A 7.9374999,7.9374999 0 0 1 13.196609,5.2919962 7.9374999,7.9374999 0 0 1 20.095413,9.3232724 L 24.817091,6.6149128 A 13.316816,13.229166 0 0 0 13.792956,0.00962972 Z M 0.0010345,13.890435 A 13.316816,13.229166 0 0 0 9.8376421,26.007526 13.316816,13.229166 0 0 0 24.817091,19.844079 l -4.718061,-2.70578 a 7.9374999,7.9374999 0 0 1 -6.902421,4.028697 7.9374999,7.9374999 0 0 1 -7.905977,-7.276561 z"
       id="path828"
       inkscape:connector-curvature="0" />
  </g>
</svg>
