<?xml version="1.0" encoding="UTF-8" standalone="no"?>
<!-- Created with Inkscape (http://www.inkscape.org/) -->

<svg
   xmlns:dc="http://purl.org/dc/elements/1.1/"
   xmlns:cc="http://creativecommons.org/ns#"
   xmlns:rdf="http://www.w3.org/1999/02/22-rdf-syntax-ns#"
   xmlns:svg="http://www.w3.org/2000/svg"
   xmlns="http://www.w3.org/2000/svg"
   xmlns:sodipodi="http://sodipodi.sourceforge.net/DTD/sodipodi-0.dtd"
   xmlns:inkscape="http://www.inkscape.org/namespaces/inkscape"
   width="20.902084mm"
   height="26.458359mm"
   viewBox="0 0 20.902084 26.458359"
   version="1.1"
   id="svg8"
   inkscape:version="0.92.4 (5da689c313, 2019-01-14)"
   sodipodi:docname="d-extrude-vertical.svg">
  <defs
     id="defs2" />
  <sodipodi:namedview
     id="base"
     pagecolor="#ffffff"
     bordercolor="#666666"
     borderopacity="1.0"
     inkscape:pageopacity="0.0"
     inkscape:pageshadow="2"
     inkscape:zoom="2.8"
     inkscape:cx="-52.709218"
     inkscape:cy="-36.853208"
     inkscape:document-units="mm"
     inkscape:current-layer="layer1"
     showgrid="false"
     inkscape:window-width="1280"
     inkscape:window-height="961"
     inkscape:window-x="-8"
     inkscape:window-y="37"
     inkscape:window-maximized="1"
     showguides="false" />
  <metadata
     id="metadata5">
    <rdf:RDF>
      <cc:Work
         rdf:about="">
        <dc:format>image/svg+xml</dc:format>
        <dc:type
           rdf:resource="http://purl.org/dc/dcmitype/StillImage" />
        <dc:title />
      </cc:Work>
    </rdf:RDF>
  </metadata>
  <g
     inkscape:label="Layer 1"
     inkscape:groupmode="layer"
     id="layer1">
    <path
       style="opacity:1;fill:#000000;fill-opacity:1;stroke-width:0;stroke-miterlimit:4;stroke-dasharray:none;paint-order:fill markers stroke"
       d="m 0,2.6e-5 v 26.458333 h 7.6729166 0.2645833 v -0.0093 a 13.229166,13.229166 0 0 0 1.8520833,-0.183981 v -5.17643 a 7.9374999,7.9374999 0 0 1 -0.84646,0.07235 v 0.0057 H 8.7839599 4.1806233 V 5.291685 h 4.6033366 0.1591633 v 0.0083 a 7.9374999,7.9374999 0 0 1 0.84646,0.06511 V 0.187073 A 13.229166,13.229166 0 0 0 7.9374999,0.01344 V 0 H 7.6729166 Z M 11.1125,0.47028 v 5.18418 a 7.9374999,7.9374999 0 0 1 5.60896,7.574732 7.9374999,7.9374999 0 0 1 -5.60896,7.576281 v 5.17436 A 13.229166,13.229166 0 0 0 20.902084,13.229192 13.229166,13.229166 0 0 0 11.1125,0.47028 Z"
       id="rect818"
       inkscape:connector-curvature="0" />
  </g>
</svg>
