<?xml version="1.0" encoding="UTF-8" standalone="no"?>
<!-- Created with Inkscape (http://www.inkscape.org/) -->

<svg
   xmlns:dc="http://purl.org/dc/elements/1.1/"
   xmlns:cc="http://creativecommons.org/ns#"
   xmlns:rdf="http://www.w3.org/1999/02/22-rdf-syntax-ns#"
   xmlns:svg="http://www.w3.org/2000/svg"
   xmlns="http://www.w3.org/2000/svg"
   xmlns:sodipodi="http://sodipodi.sourceforge.net/DTD/sodipodi-0.dtd"
   xmlns:inkscape="http://www.inkscape.org/namespaces/inkscape"
   width="23.362915mm"
   height="26.335342mm"
   viewBox="0 0 23.362915 26.335342"
   version="1.1"
   id="svg8"
   inkscape:version="0.92.4 (5da689c313, 2019-01-14)"
   sodipodi:docname="g-extrude-thick-vertical.svg">
  <defs
     id="defs2" />
  <sodipodi:namedview
     id="base"
     pagecolor="#ffffff"
     bordercolor="#666666"
     borderopacity="1.0"
     inkscape:pageopacity="0.0"
     inkscape:pageshadow="2"
     inkscape:zoom="1.4142136"
     inkscape:cx="-56.632846"
     inkscape:cy="-122.19245"
     inkscape:document-units="mm"
     inkscape:current-layer="layer1"
     showgrid="false"
     inkscape:window-width="1920"
     inkscape:window-height="1017"
     inkscape:window-x="1272"
     inkscape:window-y="-8"
     inkscape:window-maximized="1"
     showguides="false" />
  <metadata
     id="metadata5">
    <rdf:RDF>
      <cc:Work
         rdf:about="">
        <dc:format>image/svg+xml</dc:format>
        <dc:type
           rdf:resource="http://purl.org/dc/dcmitype/StillImage" />
        <dc:title />
      </cc:Work>
    </rdf:RDF>
  </metadata>
  <g
     inkscape:label="Layer 1"
     inkscape:groupmode="layer"
     id="layer1"
     transform="translate(1.059524e-8,-0.05219319)">
    <text
       xml:space="preserve"
       style="font-style:normal;font-weight:normal;font-size:10.58333302px;line-height:1.25;font-family:sans-serif;letter-spacing:0px;word-spacing:0px;fill:#000000;fill-opacity:1;stroke:none;stroke-width:0.26458332"
       x="66.344269"
       y="275.96561"
       id="text901"><tspan
         sodipodi:role="line"
         id="tspan899"
         x="66.344269"
         y="285.62109"
         style="stroke-width:0.26458332" /></text>
    <path
       style="opacity:1;vector-effect:none;fill:#000000;fill-opacity:1;fill-rule:evenodd;stroke-width:0.91239303;stroke-linecap:butt;stroke-linejoin:miter;stroke-miterlimit:4;stroke-dasharray:none;stroke-dashoffset:0;stroke-opacity:1"
       d="M 54.150391,0.19726562 V 20.328125 a 30,30 0 0 1 18.80664,10.408203 l 15.34375,-12.875 A 49.999854,49.999854 0 0 0 54.150391,0.19726562 Z m -20,2.42578128 A 49.999854,49.999854 0 0 0 32.898438,3.015625 49.999854,49.999854 0 0 0 0,50 a 49.999854,49.999854 0 0 0 32.898438,46.986328 49.999854,49.999854 0 0 0 1.251953,0.38086 V 75.414062 A 30,30 0 0 1 20,50 30,30 0 0 1 34.150391,24.5625 Z m 34.15039,44.9003911 v 26.220703 a 30,30 0 0 1 -14.15039,5.939453 V 99.732422 A 49.999854,49.999854 0 0 0 88.300781,82.140625 V 47.523438 Z"
       transform="scale(0.26458333)"
       id="path815"
       inkscape:connector-curvature="0" />
  </g>
</svg>
