<?xml version="1.0" encoding="UTF-8" standalone="no"?>
<!-- Created with Inkscape (http://www.inkscape.org/) -->

<svg
   xmlns:dc="http://purl.org/dc/elements/1.1/"
   xmlns:cc="http://creativecommons.org/ns#"
   xmlns:rdf="http://www.w3.org/1999/02/22-rdf-syntax-ns#"
   xmlns:svg="http://www.w3.org/2000/svg"
   xmlns="http://www.w3.org/2000/svg"
   xmlns:sodipodi="http://sodipodi.sourceforge.net/DTD/sodipodi-0.dtd"
   xmlns:inkscape="http://www.inkscape.org/namespaces/inkscape"
   width="23.362915mm"
   height="26.44906mm"
   viewBox="0 0 23.362915 26.44906"
   version="1.1"
   id="svg8"
   inkscape:version="0.92.4 (5da689c313, 2019-01-14)"
   sodipodi:docname="g-extrude-vertical.svg">
  <defs
     id="defs2" />
  <sodipodi:namedview
     id="base"
     pagecolor="#ffffff"
     bordercolor="#666666"
     borderopacity="1.0"
     inkscape:pageopacity="0.0"
     inkscape:pageshadow="2"
     inkscape:zoom="1.4142136"
     inkscape:cx="63.928857"
     inkscape:cy="-121.95992"
     inkscape:document-units="mm"
     inkscape:current-layer="layer1"
     showgrid="false"
     inkscape:window-width="1280"
     inkscape:window-height="961"
     inkscape:window-x="-8"
     inkscape:window-y="37"
     inkscape:window-maximized="1"
     showguides="false" />
  <metadata
     id="metadata5">
    <rdf:RDF>
      <cc:Work
         rdf:about="">
        <dc:format>image/svg+xml</dc:format>
        <dc:type
           rdf:resource="http://purl.org/dc/dcmitype/StillImage" />
        <dc:title />
      </cc:Work>
    </rdf:RDF>
  </metadata>
  <g
     inkscape:label="Layer 1"
     inkscape:groupmode="layer"
     id="layer1">
    <text
       xml:space="preserve"
       style="font-style:normal;font-weight:normal;font-size:10.58333302px;line-height:1.25;font-family:sans-serif;letter-spacing:0px;word-spacing:0px;fill:#000000;fill-opacity:1;stroke:none;stroke-width:0.26458332"
       x="66.344269"
       y="275.96561"
       id="text901"><tspan
         sodipodi:role="line"
         id="tspan899"
         x="66.344269"
         y="285.62109"
         style="stroke-width:0.26458332" /></text>
    <path
       style="opacity:1;vector-effect:none;fill:#000000;fill-opacity:1;fill-rule:evenodd;stroke-width:0.241404;stroke-linecap:butt;stroke-linejoin:miter;stroke-miterlimit:4;stroke-dasharray:none;stroke-dashoffset:0;stroke-opacity:1"
       d="m 12.867431,0.00493757 a 13.229128,13.229128 0 0 0 -0.28732,0.010853 13.229128,13.229128 0 0 0 -0.237195,0.02377 V 5.3503479 a 7.9374999,7.9374999 0 0 1 0.886251,-0.05891 7.9374999,7.9374999 0 0 1 6.074047,2.840653 l 4.059701,-3.40651 A 13.229128,13.229128 0 0 0 12.867431,0.00493757 Z m -1.847432,0.190686 A 13.229128,13.229128 0 0 0 8.7043783,0.79765417 13.229128,13.229128 0 0 0 1.0552926e-8,13.228937 13.229128,13.229128 0 0 0 8.7043783,25.660735 13.229128,13.229128 0 0 0 11.019999,26.262765 V 20.846559 A 7.9374999,7.9374999 0 0 1 5.2916666,13.228937 7.9374999,7.9374999 0 0 1 11.019999,5.6087299 Z M 18.071248,12.573679 v 6.937561 a 7.9374999,7.9374999 0 0 1 -4.842081,1.655198 7.9374999,7.9374999 0 0 1 -0.886251,-0.05374 v 5.306136 a 13.229128,13.229128 0 0 0 11.019999,-4.686019 v -9.159131 z"
       id="path815"
       inkscape:connector-curvature="0" />
  </g>
</svg>
