<?xml version="1.0" encoding="UTF-8" standalone="no"?>
<!-- Created with Inkscape (http://www.inkscape.org/) -->

<svg
   xmlns:dc="http://purl.org/dc/elements/1.1/"
   xmlns:cc="http://creativecommons.org/ns#"
   xmlns:rdf="http://www.w3.org/1999/02/22-rdf-syntax-ns#"
   xmlns:svg="http://www.w3.org/2000/svg"
   xmlns="http://www.w3.org/2000/svg"
   xmlns:sodipodi="http://sodipodi.sourceforge.net/DTD/sodipodi-0.dtd"
   xmlns:inkscape="http://www.inkscape.org/namespaces/inkscape"
   width="26.458332mm"
   height="26.458334mm"
   viewBox="0 0 26.458332 26.458334"
   version="1.1"
   id="svg8"
   inkscape:version="0.92.4 (5da689c313, 2019-01-14)"
   sodipodi:docname="o-extrude-thick-forward.svg">
  <defs
     id="defs2" />
  <sodipodi:namedview
     id="base"
     pagecolor="#ffffff"
     bordercolor="#666666"
     borderopacity="1.0"
     inkscape:pageopacity="0.0"
     inkscape:pageshadow="2"
     inkscape:zoom="0.98994949"
     inkscape:cx="-463.44475"
     inkscape:cy="53.031727"
     inkscape:document-units="mm"
     inkscape:current-layer="layer1"
     showgrid="false"
     inkscape:window-width="1920"
     inkscape:window-height="1017"
     inkscape:window-x="1272"
     inkscape:window-y="-8"
     inkscape:window-maximized="1"
     showguides="false" />
  <metadata
     id="metadata5">
    <rdf:RDF>
      <cc:Work
         rdf:about="">
        <dc:format>image/svg+xml</dc:format>
        <dc:type
           rdf:resource="http://purl.org/dc/dcmitype/StillImage" />
        <dc:title />
      </cc:Work>
    </rdf:RDF>
  </metadata>
  <g
     inkscape:label="Layer 1"
     inkscape:groupmode="layer"
     id="layer1"
     transform="translate(2.8055136,-1.0681518)">
    <path
       style="opacity:1;vector-effect:none;fill:#000000;fill-opacity:1;fill-rule:evenodd;stroke-width:1.11230266;stroke-linecap:butt;stroke-linejoin:miter;stroke-miterlimit:4;stroke-dasharray:none;stroke-dashoffset:0;stroke-opacity:1"
       d="m 39.396484,4.0371094 a 50.000001,50.000001 0 0 0 -50,49.9999996 50.000001,50.000001 0 0 0 8.3457035,27.513672 L 12.369141,66.923828 a 30,30 0 0 1 -2.9726566,-12.886719 30,30 0 0 1 29.9999996,-30 30,30 0 0 1 12.900391,2.958985 L 66.888672,12.404297 A 50.000001,50.000001 0 0 0 39.396484,4.0371094 Z m 41.652344,22.4902346 -14.625,14.625 a 30,30 0 0 1 2.972656,12.884765 30,30 0 0 1 -30,30 30,30 0 0 1 -12.902343,-2.955078 L 11.904297,95.671875 a 50.000001,50.000001 0 0 0 27.492187,8.365235 50.000001,50.000001 0 0 0 50,-50.000001 50.000001,50.000001 0 0 0 -8.347656,-27.509765 z"
       transform="scale(0.26458333)"
       id="path816"
       inkscape:connector-curvature="0" />
  </g>
</svg>
