<?xml version="1.0" encoding="UTF-8" standalone="no"?>
<!-- Created with Inkscape (http://www.inkscape.org/) -->

<svg
   xmlns:dc="http://purl.org/dc/elements/1.1/"
   xmlns:cc="http://creativecommons.org/ns#"
   xmlns:rdf="http://www.w3.org/1999/02/22-rdf-syntax-ns#"
   xmlns:svg="http://www.w3.org/2000/svg"
   xmlns="http://www.w3.org/2000/svg"
   xmlns:sodipodi="http://sodipodi.sourceforge.net/DTD/sodipodi-0.dtd"
   xmlns:inkscape="http://www.inkscape.org/namespaces/inkscape"
   width="24.843443mm"
   height="26.168428mm"
   viewBox="0 0 24.843442 26.168428"
   version="1.1"
   id="svg8"
   inkscape:version="0.92.4 (5da689c313, 2019-01-14)"
   sodipodi:docname="u - Copy.svg">
  <defs
     id="defs2" />
  <sodipodi:namedview
     id="base"
     pagecolor="#ffffff"
     bordercolor="#666666"
     borderopacity="1.0"
     inkscape:pageopacity="0.0"
     inkscape:pageshadow="2"
     inkscape:zoom="4"
     inkscape:cx="33.072705"
     inkscape:cy="62.427625"
     inkscape:document-units="mm"
     inkscape:current-layer="layer1"
     showgrid="false"
     inkscape:window-width="1920"
     inkscape:window-height="1017"
     inkscape:window-x="1272"
     inkscape:window-y="-8"
     inkscape:window-maximized="1"
     showguides="false" />
  <metadata
     id="metadata5">
    <rdf:RDF>
      <cc:Work
         rdf:about="">
        <dc:format>image/svg+xml</dc:format>
        <dc:type
           rdf:resource="http://purl.org/dc/dcmitype/StillImage" />
        <dc:title />
      </cc:Work>
    </rdf:RDF>
  </metadata>
  <g
     inkscape:label="Layer 1"
     inkscape:groupmode="layer"
     id="layer1"
     transform="translate(49.913878,4.5817448)">
    <text
       xml:space="preserve"
       style="font-style:normal;font-weight:normal;font-size:10.58333302px;line-height:1.25;font-family:sans-serif;letter-spacing:0px;word-spacing:0px;fill:#000000;fill-opacity:1;stroke:none;stroke-width:0.26458332"
       x="66.344269"
       y="275.96561"
       id="text901"><tspan
         sodipodi:role="line"
         id="tspan899"
         x="66.344269"
         y="285.62109"
         style="stroke-width:0.26458332" /></text>
    <path
       style="opacity:1;vector-effect:none;fill:#000000;fill-opacity:1;fill-rule:evenodd;stroke-width:2.00849223;stroke-linecap:butt;stroke-linejoin:miter;stroke-miterlimit:4;stroke-dasharray:none;stroke-dashoffset:0;stroke-opacity:1"
       d="m 0,0 v 53.052734 0.9375 h 0.02148438 a 46.948498,46.948498 0 0 0 23.45312462,39.71875 46.948498,46.948498 0 0 0 13.47461,5.195313 V 79.589844 A 28.169197,28.738764 0 0 1 32.863281,77.628906 28.169197,28.738764 0 0 1 18.792969,53.314453 h -0.01367 V 52.740234 0 Z m 75.117188,0 v 52.740234 0.574219 h -0.0293 A 28.169197,28.738764 0 0 1 61.0332,77.628906 28.169197,28.738764 0 0 1 56.949216,79.568359 v 19.296875 a 46.948498,46.948498 0 0 0 13.472656,-5.15625 46.948498,46.948498 0 0 0 23.427734,-39.71875 h 0.04687 V 53.052734 0 Z"
       transform="matrix(0.26458333,0,0,0.26458333,-49.913878,-4.5817448)"
       id="path847"
       inkscape:connector-curvature="0" />
  </g>
</svg>
