<?xml version="1.0" encoding="UTF-8" standalone="no"?>
<svg
   xmlns:dc="http://purl.org/dc/elements/1.1/"
   xmlns:cc="http://creativecommons.org/ns#"
   xmlns:rdf="http://www.w3.org/1999/02/22-rdf-syntax-ns#"
   xmlns:svg="http://www.w3.org/2000/svg"
   xmlns="http://www.w3.org/2000/svg"
   xmlns:sodipodi="http://sodipodi.sourceforge.net/DTD/sodipodi-0.dtd"
   xmlns:inkscape="http://www.inkscape.org/namespaces/inkscape"
   width="2354.5024"
   height="2494.175"
   viewBox="0 0 254.326 269.37091"
   preserveAspectRatio="xMinYMin meet"
   version="1.1"
   id="svg12"
   sodipodi:docname="angular.svg"
   inkscape:version="0.92.4 (5da689c313, 2019-01-14)">
  <metadata
     id="metadata18">
    <rdf:RDF>
      <cc:Work
         rdf:about="">
        <dc:format>image/svg+xml</dc:format>
        <dc:type
           rdf:resource="http://purl.org/dc/dcmitype/StillImage" />
      </cc:Work>
    </rdf:RDF>
  </metadata>
  <defs
     id="defs16" />
  <sodipodi:namedview
     pagecolor="#ffffff"
     bordercolor="#666666"
     borderopacity="1"
     objecttolerance="10"
     gridtolerance="10"
     guidetolerance="10"
     inkscape:pageopacity="0"
     inkscape:pageshadow="2"
     inkscape:window-width="640"
     inkscape:window-height="480"
     id="namedview14"
     showgrid="false"
     inkscape:zoom="0.0944"
     inkscape:cx="64.851982"
     inkscape:cy="1247.332"
     inkscape:window-x="0"
     inkscape:window-y="0"
     inkscape:window-maximized="0"
     inkscape:current-layer="svg12" />
  <path
     d="M 126.757,0 0,44.609 20.031,210.681 126.891,269.413 234.303,209.885 254.326,43.819 Z"
     id="path2"
     inkscape:connector-curvature="0"
     style="fill:#b3b3b3" />
  <path
     d="M 241.683,53.417 126.461,14.125 v 241.256 l 96.561,-53.441 18.66,-148.523 z"
     id="path4"
     inkscape:connector-curvature="0"
     style="fill:#a6120d" />
  <path
     d="m 14.224,54.125 17.165,148.525 95.07,52.731 V 14.121 L 14.225,54.124 Z"
     id="path6"
     inkscape:connector-curvature="0"
     style="fill:#dd1b16" />
  <path
     d="m 158.178,142.557 -31.717,14.832 H 93.032 l -15.714,39.305 -29.228,0.54 78.371,-174.348 31.717,119.672 z m -3.066,-7.467 -28.44,-56.303 -23.329,55.334 h 23.117 l 28.652,0.97 z"
     id="path8"
     inkscape:connector-curvature="0"
     style="fill:#f2f2f2" />
  <path
     d="m 126.46,22.885 0.21,55.902 26.47,55.377 h -26.62 l -0.06,23.189 36.81,0.035 17.204,39.852 27.967,0.518 z"
     id="path10"
     inkscape:connector-curvature="0"
     style="fill:#b3b3b3" />
</svg>
