<?xml version="1.0" encoding="UTF-8" standalone="no"?>
<svg
   xmlns:dc="http://purl.org/dc/elements/1.1/"
   xmlns:cc="http://creativecommons.org/ns#"
   xmlns:rdf="http://www.w3.org/1999/02/22-rdf-syntax-ns#"
   xmlns:svg="http://www.w3.org/2000/svg"
   xmlns="http://www.w3.org/2000/svg"
   xmlns:sodipodi="http://sodipodi.sourceforge.net/DTD/sodipodi-0.dtd"
   xmlns:inkscape="http://www.inkscape.org/namespaces/inkscape"
   width="2499.5327"
   height="2476.6287"
   viewBox="0 0 255.95215 253.65471"
   preserveAspectRatio="xMidYMid"
   version="1.1"
   id="svg4"
   sodipodi:docname="concourse.svg"
   inkscape:version="0.92.4 (5da689c313, 2019-01-14)">
  <metadata
     id="metadata10">
    <rdf:RDF>
      <cc:Work
         rdf:about="">
        <dc:format>image/svg+xml</dc:format>
        <dc:type
           rdf:resource="http://purl.org/dc/dcmitype/StillImage" />
      </cc:Work>
    </rdf:RDF>
  </metadata>
  <defs
     id="defs8" />
  <sodipodi:namedview
     pagecolor="#ffffff"
     bordercolor="#666666"
     borderopacity="1"
     objecttolerance="10"
     gridtolerance="10"
     guidetolerance="10"
     inkscape:pageopacity="0"
     inkscape:pageshadow="2"
     inkscape:window-width="1280"
     inkscape:window-height="961"
     id="namedview6"
     showgrid="false"
     inkscape:zoom="0.09516129"
     inkscape:cx="146.37808"
     inkscape:cy="1236.6283"
     inkscape:window-x="-8"
     inkscape:window-y="37"
     inkscape:window-maximized="1"
     inkscape:current-layer="svg4" />
  <path
     d="m 145.93523,150.37504 c 9.791,-0.815 17.069,-9.413 16.254,-19.204 -0.815,-9.792 -9.413,-17.07 -19.205,-16.255 -9.791,0.815 -17.069,9.413 -16.254,19.205 0.815,9.792 9.413,17.069 19.205,16.254 z m 20.729,-0.25 a 37.804,37.804 0 0 1 -13.892,9.688 l -0.042,0.119 a 161.362,161.362 0 0 0 18.681,43.858 68.058,68.058 0 0 1 -23.498,7.433 l -1.162,0.151 -1.381,0.105 -2.768,0.211 c -1.7,0 -3.364,0.156 -5.143,0.053 a 70.794,70.794 0 0 1 -20.584,-3.515 68.633,68.633 0 0 1 -9.078,-3.634 72.746,72.746 0 0 1 -7.724,-4.3 69.29,69.29 0 0 1 -6.12,-4.381 c -1.802,-1.355 -3.213,-2.729 -4.438,-3.8 -2.34,-2.247 -3.632,-3.604 -3.632,-3.604 0,0 1.087,1.51 3.124,4.079 1.074,1.233 2.312,2.81 3.94,4.428 a 71.053,71.053 0 0 0 5.62,5.31 75.911,75.911 0 0 0 7.372,5.529 73.156,73.156 0 0 0 9.017,5.12 78.339,78.339 0 0 0 10.39,4.141 79.436,79.436 0 0 0 11.348,2.677 c 1.914,0.372 3.983,0.495 5.982,0.741 l 2.78,0.165 1.383,0.08 1.588,0.026 a 79.83,79.83 0 0 0 11.493,-0.714 80.946,80.946 0 0 0 19.056,-5.045 159.895,159.895 0 0 0 7.343,9.252 l -0.354,0.219 -3.06,1.893 -0.422,0.26 -0.107,0.066 -0.027,0.017 c -0.514,0.257 0.672,-0.33 0.538,-0.265 l -0.055,0.028 -0.226,0.116 -0.929,0.471 -1.957,0.995 -1.028,0.521 -0.527,0.268 -0.267,0.135 -0.066,0.033 -0.034,0.018 c -0.092,0.039 0.688,-0.283 0.341,-0.139 l -0.137,0.06 -2.27,0.997 -2.39,1.05 -0.306,0.135 -0.039,0.016 c 0.527,-0.188 0.125,-0.043 0.232,-0.081 l -0.076,0.035 -0.157,0.062 -0.633,0.248 -1.287,0.503 a 93.432,93.432 0 0 1 -36.661,6.183 l -1.626,-0.059 -1.838,-0.145 -3.685,-0.295 c -2.285,-0.362 -4.57,-0.52 -6.916,-1.033 a 95.502,95.502 0 0 1 -26.625,-9.02 c -2.033,-1.016 -3.994,-2.083 -5.854,-3.242 -1.914,-1.077 -3.673,-2.304 -5.409,-3.478 a 97.606,97.606 0 0 1 -9.31,-7.297 92.654,92.654 0 0 1 -7.16,-7.056 c -2.091,-2.165 -3.666,-4.263 -5.056,-5.927 -1.351,-1.692 -2.286,-3.118 -2.987,-4.048 l -1.045,-1.447 0.898,1.545 c 0.602,0.994 1.392,2.518 2.572,4.35 1.217,1.807 2.592,4.083 4.474,6.48 a 94.672,94.672 0 0 0 6.539,7.907 100.772,100.772 0 0 0 8.79,8.466 c 1.666,1.394 3.366,2.854 5.235,4.176 1.814,1.402 3.746,2.725 5.76,4.005 a 103.491,103.491 0 0 0 12.927,7.114 104.652,104.652 0 0 0 14.381,5.34 c 2.442,0.799 5.09,1.29 7.637,1.936 l 3.644,0.67 1.813,0.33 2.025,0.29 c 4.989,0.674 10.02,0.988 15.054,0.939 a 106.219,106.219 0 0 0 26.742,-3.735 l 1.332,-0.37 0.655,-0.181 0.915,-0.292 2.484,-0.801 2.36,-0.762 2.56,-0.988 2.047,-0.79 0.972,-0.377 0.237,-0.09 0.059,-0.023 0.623,-0.308 0.113,-0.055 0.446,-0.217 3.237,-1.572 4.044,-1.965 c 2.749,2.63 5.58,5.18 8.52,7.62 0,0 13.999,14.416 21.71,8.487 7.25,-5.572 -1.102,-23.049 -1.102,-23.049 a 161.928,161.928 0 0 0 -59.943,-79.05 z m -48.835,-23.692 -0.081,-0.098 a 161.356,161.356 0 0 0 -46.794,-6.583 67.977,67.977 0 0 1 6.205,-24.888004 l 0.489,-1.064 0.64,-1.227 1.288,-2.46 c 0.9,-1.441 1.649,-2.937 2.68,-4.39 a 70.78,70.78 0 0 1 13.886,-15.597 68.636,68.636 0 0 1 7.89,-5.773 72.847,72.847 0 0 1 7.74,-4.27 69.24,69.24 0 0 1 6.96,-2.869 c 2.107,-0.808 4.015,-1.28 5.57,-1.75 3.147,-0.802 4.985,-1.178 4.985,-1.178 0,0 -1.856,0.122 -5.116,0.489 -1.615,0.257 -3.608,0.471 -5.842,0.994 a 71.229,71.229 0 0 0 -7.482,1.958 76,76 0 0 0 -8.595,3.323 73.127,73.127 0 0 0 -9.118,4.935 78.29,78.29 0 0 0 -9.02,6.618 79.42,79.42 0 0 0 -8.282,8.207 c -1.33,1.426 -2.53,3.116 -3.797,4.681 l -1.613,2.27 -0.8,1.13 -0.864,1.333 a 79.826,79.826 0 0 0 -5.483,10.126004 81.077,81.077 0 0 0 -6.008,19.795 l -0.046,0.275 c -3.862,0.354 -7.707,0.848 -11.538,1.482 l 0.01,-2.013 0.015,-3.599 v -0.652 c 0.055,-0.572 -0.075,0.744 -0.06,0.597 l 0.005,-0.062 0.022,-0.253 0.093,-1.037 0.192,-2.183 0.102,-1.149 0.052,-0.587 0.026,-0.297 0.006,-0.075 0.004,-0.038 c 0.015,-0.099 -0.126,0.733 -0.063,0.363 l 0.02,-0.15 0.358,-2.453 0.376,-2.583 0.048,-0.332 0.006,-0.041 c -0.122,0.548 -0.029,0.128 -0.054,0.24 l 0.016,-0.083 0.03,-0.166 0.127,-0.668 0.256,-1.355 a 93.424,93.424 0 0 1 14.178,-34.370004 l 0.911,-1.348 1.097,-1.481 2.202,-2.97 c 1.517,-1.746 2.861,-3.601 4.54,-5.318 a 95.532,95.532 0 0 1 21.755,-17.803 c 1.937,-1.185 3.882,-2.284 5.85,-3.248 1.928,-1.054 3.9,-1.894 5.815,-2.745 a 97.637,97.637 0 0 1 11.12,-4.03 92.636,92.636 0 0 1 9.779,-2.334 c 2.944,-0.626 5.558,-0.85 7.706,-1.147 2.154,-0.256 3.857,-0.294 5.015,-0.395 l 1.782,-0.119 -1.782,-0.063 c -1.163,-0.017 -2.875,-0.15 -5.053,-0.124 -2.174,0.075 -4.836,0.034 -7.866,0.361 a 94.66,94.66 0 0 0 -10.17,1.355 100.83,100.83 0 0 0 -11.837,2.97 c -2.065,0.678 -4.204,1.343 -6.315,2.229 -2.15,0.796 -4.296,1.731 -6.449,2.763 a 103.444,103.444 0 0 0 -12.881,7.195 104.715,104.715 0 0 0 -12.15,9.37 c -1.97,1.647 -3.788,3.633 -5.687,5.451 l -2.498,2.736 -1.24,1.365 -1.318,1.564 a 104.648,104.648 0 0 0 -8.773,12.273 106.193,106.193 0 0 0 -10.999,24.660004 l -0.392,1.325 -0.193,0.652 -0.237,0.93 -0.637,2.532 -0.603,2.404 -0.518,2.697 -0.415,2.156 -0.197,1.021 -0.048,0.25 -0.012,0.062 -0.069,0.691 -0.013,0.125 -0.052,0.493 -0.382,3.578 -0.677,6.363 a 161.76,161.76 0 0 0 -11.079,3.421 c 0,0 -19.5660004,4.574 -18.45700036,14.237 1.04399996,9.086 20.32300036,10.93 20.32300036,10.93 a 161.932,161.932 0 0 0 98.636,-10.656 37.787,37.787 0 0 1 -1.151,-16.9 z m 137.796,-10.499 a 104.75,104.75 0 0 0 -2.417,-15.15 c -0.504,-2.520004 -1.38,-5.066004 -2.068,-7.605004 l -1.205,-3.503 -0.602,-1.742 -0.743,-1.905 a 104.627,104.627 0 0 0 -6.581,-13.573 106.225,106.225 0 0 0 -16.395,-21.454 l -0.979,-0.978 -0.48,-0.482 -0.705,-0.649 -1.918,-1.77 -1.823,-1.68 -2.12,-1.746 -1.695,-1.395 -0.802,-0.662 -0.195,-0.162 -0.05,-0.04 -0.574,-0.39 -0.103,-0.072 -0.407,-0.282 -2.962,-2.045 -3.97,-2.744 a 162.522,162.522 0 0 0 2.6,-12.369 c 0.708,-4.167 5.462,-19.3380003 -3.532,-23.04000028 -8.456,-3.48100002 -19.395,12.50000028 -19.395,12.50000028 a 161.935,161.935 0 0 0 -38.388,91.482004 37.798,37.798 0 0 1 15.344,7.17 l 0.124,-0.024 a 161.346,161.346 0 0 0 27.83,-36.728004 67.97,67.97 0 0 1 18.475,17.092 l 0.7,0.938 0.771,1.15 1.544,2.306 c 0.836,1.48 1.79,2.853 2.575,4.454004 a 70.773,70.773 0 0 1 7.054,19.652 68.753,68.753 0 0 1 1.294,9.695 72.9,72.9 0 0 1 0.05,8.839 69.358,69.358 0 0 1 -0.807,7.483 c -0.301,2.237 -0.798,4.142 -1.13,5.733 -0.806,3.143 -1.355,4.934 -1.355,4.934 0,0 0.782,-1.688 2.017,-4.726 0.547,-1.542 1.312,-3.394 1.921,-5.606 a 71.067,71.067 0 0 0 1.861,-7.506 c 0.583,-3.018 0.98,-6.07 1.193,-9.137 0.254,-3.45 0.263,-6.915 0.027,-10.368 a 78.299,78.299 0 0 0 -1.498,-11.087 79.33,79.33 0 0 0 -3.245,-11.198004 c -0.616,-1.85 -1.527,-3.713 -2.295,-5.572 l -1.223,-2.502 -0.61,-1.243 -0.757,-1.397 a 79.9,79.9 0 0 0 -6.271,-9.658 81.062,81.062 0 0 0 -14.198,-14.484 162.294,162.294 0 0 0 4.53,-11.206 l 0.62,0.333 3.153,1.732 0.435,0.24 0.11,0.06 0.028,0.015 c 0.476,0.321 -0.617,-0.422 -0.496,-0.339 l 0.053,0.035 0.211,0.14 0.867,0.577 1.825,1.218 0.96,0.639 0.492,0.327 0.247,0.165 0.063,0.041 0.031,0.021 c 0.08,0.061 -0.583,-0.46 -0.289,-0.226 l 0.122,0.09 1.988,1.484 2.09,1.565 0.268,0.2 0.033,0.026 c -0.423,-0.369 -0.098,-0.087 -0.186,-0.162 l 0.066,0.053 0.131,0.107 0.527,0.43 1.072,0.873 a 93.432,93.432 0 0 1 23.403,28.89 l 0.747,1.446 0.777,1.671 1.554,3.355 c 0.808,2.168 1.794,4.236004 2.5,6.531004 a 95.502,95.502 0 0 1 5.23,27.62 c 0.114,2.269 0.15,4.503 0.054,6.692 0,2.197 -0.202,4.332 -0.37,6.42 a 97.599,97.599 0 0 1 -1.78,11.693 92.55,92.55 0 0 1 -2.626,9.705 c -0.858,2.885 -1.912,5.289 -2.678,7.316 -0.81,2.01 -1.592,3.523 -2.057,4.593 l -0.748,1.621 0.908,-1.535 c 0.57,-1.013 1.506,-2.45 2.525,-4.378 0.971,-1.946 2.282,-4.264 3.444,-7.081 a 94.543,94.543 0 0 0 3.672,-9.58 100.765,100.765 0 0 0 3.053,-11.817 c 0.396,-2.136 0.828,-4.334 1.064,-6.61 0.33,-2.27 0.533,-4.602 0.658,-6.986 0.297,-4.917 0.242,-9.85 -0.163,-14.759 z"
     id="path2"
     inkscape:connector-curvature="0"
     style="fill:#4da9e1" />
</svg>
