<?xml version="1.0" encoding="UTF-8" standalone="no"?>
<svg
   xmlns:dc="http://purl.org/dc/elements/1.1/"
   xmlns:cc="http://creativecommons.org/ns#"
   xmlns:rdf="http://www.w3.org/1999/02/22-rdf-syntax-ns#"
   xmlns:svg="http://www.w3.org/2000/svg"
   xmlns="http://www.w3.org/2000/svg"
   xmlns:sodipodi="http://sodipodi.sourceforge.net/DTD/sodipodi-0.dtd"
   xmlns:inkscape="http://www.inkscape.org/namespaces/inkscape"
   enable-background="new 0 0 32 32"
   height="32"
   id="Layer_1"
   version="1.0"
   viewBox="0 0 28.002001 32"
   width="28.002001"
   xml:space="preserve"
   sodipodi:docname="html5.svg"
   inkscape:version="0.92.4 (5da689c313, 2019-01-14)"><metadata
     id="metadata27"><rdf:RDF><cc:Work
         rdf:about=""><dc:format>image/svg+xml</dc:format><dc:type
           rdf:resource="http://purl.org/dc/dcmitype/StillImage" /></cc:Work></rdf:RDF></metadata><defs
     id="defs25" /><sodipodi:namedview
     pagecolor="#ffffff"
     bordercolor="#666666"
     borderopacity="1"
     objecttolerance="10"
     gridtolerance="10"
     guidetolerance="10"
     inkscape:pageopacity="0"
     inkscape:pageshadow="2"
     inkscape:window-width="1280"
     inkscape:window-height="961"
     id="namedview23"
     showgrid="false"
     inkscape:zoom="7.375"
     inkscape:cx="-0.23728814"
     inkscape:cy="16"
     inkscape:window-x="-8"
     inkscape:window-y="37"
     inkscape:window-maximized="1"
     inkscape:current-layer="Layer_1" /><g
     id="g8"
     transform="translate(-2)"><polygon
       points="4.625,28.889 2,0 30.002,0 27.377,28.889 16.001,32 "
       id="polygon2"
       style="fill:#e44d26" /><polygon
       points="25.232,27.008 27.688,2 16,2 16,29.75 "
       id="polygon4"
       style="fill:#ff6c39" /><polygon
       points="8,10 8.619,17 19.503,17 19.148,20.984 16,21.99 12.857,20.984 12.648,19 8.803,19 9.262,23.987 16,25.99 22.728,23.986 23.718,13 12.252,13 12.002,10 24,10 24.363,6 7.607,6 "
       id="polygon6"
       style="fill:#ffffff" /></g><g
     id="g10"
     transform="translate(-2)" /><g
     id="g12"
     transform="translate(-2)" /><g
     id="g14"
     transform="translate(-2)" /><g
     id="g16"
     transform="translate(-2)" /><g
     id="g18"
     transform="translate(-2)" /><g
     id="g20"
     transform="translate(-2)" /></svg>