<?xml version="1.0" encoding="UTF-8" standalone="no"?>
<svg
   xmlns:dc="http://purl.org/dc/elements/1.1/"
   xmlns:cc="http://creativecommons.org/ns#"
   xmlns:rdf="http://www.w3.org/1999/02/22-rdf-syntax-ns#"
   xmlns:svg="http://www.w3.org/2000/svg"
   xmlns="http://www.w3.org/2000/svg"
   xmlns:sodipodi="http://sodipodi.sourceforge.net/DTD/sodipodi-0.dtd"
   xmlns:inkscape="http://www.inkscape.org/namespaces/inkscape"
   id="Lager_1"
   version="1.1"
   viewBox="0 0 100 100"
   xml:space="preserve"
   sodipodi:docname="ionic.svg"
   width="100"
   height="100"
   inkscape:version="0.92.4 (5da689c313, 2019-01-14)"><metadata
     id="metadata17"><rdf:RDF><cc:Work
         rdf:about=""><dc:format>image/svg+xml</dc:format><dc:type
           rdf:resource="http://purl.org/dc/dcmitype/StillImage" /></cc:Work></rdf:RDF></metadata><defs
     id="defs15" /><sodipodi:namedview
     pagecolor="#ffffff"
     bordercolor="#666666"
     borderopacity="1"
     objecttolerance="10"
     gridtolerance="10"
     guidetolerance="10"
     inkscape:pageopacity="0"
     inkscape:pageshadow="2"
     inkscape:window-width="640"
     inkscape:window-height="480"
     id="namedview13"
     showgrid="false"
     inkscape:zoom="1.84375"
     inkscape:cx="-6.9491525"
     inkscape:cy="50"
     inkscape:window-x="0"
     inkscape:window-y="0"
     inkscape:window-maximized="0"
     inkscape:current-layer="Lager_1" /><style
     type="text/css"
     id="style2">
	.st0{fill:#E6F0FF;}
	.st1{fill:#2F72E1;}
</style><path
     class="st0"
     d="M 50,0 C 22.4,0 0,22.4 0,50 0,77.6 22.4,100 50,100 77.6,100 100,77.6 100,50 100,22.4 77.6,0 50,0 Z"
     id="path4"
     inkscape:connector-curvature="0"
     style="fill:#e6f0ff" /><g
     id="g10"
     transform="translate(-14,-14)"><path
       class="st1"
       d="m 87.4,47.4 c 0.6,-0.8 1,-1.9 1,-3 0,-2.6 -2.1,-4.8 -4.8,-4.8 -1.1,0 -2.2,0.4 -3,1 C 75.9,37.3 70.2,35.3 64,35.3 48.2,35.3 35.3,48.1 35.3,64 c 0,15.9 12.9,28.7 28.7,28.7 15.8,0 28.7,-12.8 28.7,-28.7 0,-6.2 -2,-11.9 -5.3,-16.6 z M 64,88.4 C 50.6,88.4 39.6,77.5 39.6,64 39.6,50.6 50.5,39.6 64,39.6 c 5.6,0 10.7,1.9 14.8,5 0.1,2.4 2.1,4.4 4.5,4.5 3.2,4.1 5.1,9.3 5.1,14.8 0,13.5 -11,24.5 -24.4,24.5 z"
       id="path6"
       inkscape:connector-curvature="0"
       style="fill:#2f72e1" /><circle
       class="st1"
       cx="64"
       cy="64"
       r="13.2"
       id="circle8"
       style="fill:#2f72e1" /></g></svg>