<?xml version="1.0" encoding="UTF-8" standalone="no"?>
<svg
   xmlns:dc="http://purl.org/dc/elements/1.1/"
   xmlns:cc="http://creativecommons.org/ns#"
   xmlns:rdf="http://www.w3.org/1999/02/22-rdf-syntax-ns#"
   xmlns:svg="http://www.w3.org/2000/svg"
   xmlns="http://www.w3.org/2000/svg"
   xmlns:sodipodi="http://sodipodi.sourceforge.net/DTD/sodipodi-0.dtd"
   xmlns:inkscape="http://www.inkscape.org/namespaces/inkscape"
   enable-background="new 0 0 398.3 439.9"
   viewBox="0 0 398.24312 439.91248"
   version="1.1"
   id="svg24"
   sodipodi:docname="jest.svg"
   width="398.2431"
   height="439.91248"
   inkscape:version="0.92.4 (5da689c313, 2019-01-14)">
  <metadata
     id="metadata30">
    <rdf:RDF>
      <cc:Work
         rdf:about="">
        <dc:format>image/svg+xml</dc:format>
        <dc:type
           rdf:resource="http://purl.org/dc/dcmitype/StillImage" />
      </cc:Work>
    </rdf:RDF>
  </metadata>
  <defs
     id="defs28" />
  <sodipodi:namedview
     pagecolor="#ffffff"
     bordercolor="#666666"
     borderopacity="1"
     objecttolerance="10"
     gridtolerance="10"
     guidetolerance="10"
     inkscape:pageopacity="0"
     inkscape:pageshadow="2"
     inkscape:window-width="1280"
     inkscape:window-height="961"
     id="namedview26"
     showgrid="false"
     inkscape:zoom="0.53648557"
     inkscape:cx="3.4250678"
     inkscape:cy="219.96248"
     inkscape:window-x="-8"
     inkscape:window-y="37"
     inkscape:window-maximized="1"
     inkscape:current-layer="svg24" />
  <path
     d="m 334.89329,218.1 c -0.5,0.3 -18.3,-2.7 -40.7,-4.2 -18.2,-1.2 -39.5,-1.2 -56.7,0 -14,0.9 -32.4,-6.1 -34.6,2.3 -8.2,31.4 -26,58.7 -48.5,79.9 -17,16 -36.4,28.1 -57.399999,35.6 -25,-12.8 -36.8,-41.4 -26.2,-66.4 8.4,-19.9 18.3,-41.7 0.1,-46.7 -13.2,-3.6 -20.5,9 -25.5,22.5 -9.7,25.9 -28.2,52.7 -33.5,84.5 -5.5999995,33.5 0,69.1 29,89.3 67.599999,46.8 140.899999,-29 218.199999,-48.1 28,-6.9 58.8,-5.8 83.5,-20.1 18.5,-10.7 30.8,-28.5 34.2,-48.5 5.6,-32.2 -11.1,-64.1 -41.9,-80.1 z"
     id="path2"
     inkscape:connector-curvature="0"
     style="fill:#99425b;stroke:#ffffff;stroke-width:20" />
  <path
     d="m 202.89329,216.2 c -8.2,31.4 -26,58.7 -48.5,79.9 -17,16 -36.4,28.1 -57.399999,35.6 -25,-12.8 -36.8,-41.4 -26.2,-66.4 8.4,-19.9 18.3,-41.7 0.1,-46.7 -13.2,-3.6 -20.5,9 -25.5,22.5 -9.7,25.9 -28.2,52.7 -33.5,84.5 -5.5999995,33.5 0,69.1 29,89.3 67.599999,46.8 140.899999,-29 218.199999,-48.1 28,-6.9 58.8,-5.8 83.5,-20.1 18.5,-10.7 30.8,-28.5 34.2,-48.5 5.6,-32.1 -11.1,-64.1 -41.9,-80"
     id="path4"
     inkscape:connector-curvature="0"
     style="fill:none;stroke:#ffffff;stroke-width:20" />
  <path
     d="m 264.89329,91.2 54.3,110.8 65.1,-192 h -239 l 65,191.6 z"
     id="path6"
     inkscape:connector-curvature="0"
     style="fill:#99425b" />
  <path
     d="m 264.89329,91.2 54.3,110.8 65.1,-192 h -239 l 65,191.6 z"
     id="path8"
     inkscape:connector-curvature="0"
     style="fill:none;stroke:#ffffff;stroke-width:20" />
  <circle
     cx="198.99329"
     cy="216.60001"
     r="40.900002"
     id="circle10"
     style="fill:#99425b" />
  <g
     id="g18"
     style="stroke:#ffffff;stroke-width:20"
     transform="translate(-0.00670851)">
    <circle
       cx="199"
       cy="216.60001"
       r="40.900002"
       id="circle12"
       style="fill:none" />
    <circle
       cx="332.39999"
       cy="216.60001"
       r="40.900002"
       id="circle14"
       style="fill:#99425b" />
    <circle
       cx="332.39999"
       cy="216.60001"
       r="40.900002"
       id="circle16"
       style="fill:none" />
  </g>
  <circle
     cx="65.093292"
     cy="216.89999"
     r="40.900002"
     id="circle20"
     style="fill:#99425b" />
  <circle
     cx="65.093292"
     cy="216.89999"
     r="40.900002"
     id="circle22"
     style="fill:none;stroke:#ffffff;stroke-width:20" />
</svg>
