<?xml version="1.0" encoding="UTF-8" standalone="no"?>
<svg
   xmlns:dc="http://purl.org/dc/elements/1.1/"
   xmlns:cc="http://creativecommons.org/ns#"
   xmlns:rdf="http://www.w3.org/1999/02/22-rdf-syntax-ns#"
   xmlns:svg="http://www.w3.org/2000/svg"
   xmlns="http://www.w3.org/2000/svg"
   xmlns:sodipodi="http://sodipodi.sourceforge.net/DTD/sodipodi-0.dtd"
   xmlns:inkscape="http://www.inkscape.org/namespaces/inkscape"
   enable-background="new 0 0 187.992 53.543"
   id="Layer_1"
   version="1.1"
   viewBox="0 0 185.74499 50.159169"
   xml:space="preserve"
   sodipodi:docname="nodejs.svg"
   width="185.745"
   height="50.159168"
   inkscape:version="0.92.4 (5da689c313, 2019-01-14)"><metadata
     id="metadata25"><rdf:RDF><cc:Work
         rdf:about=""><dc:format>image/svg+xml</dc:format><dc:type
           rdf:resource="http://purl.org/dc/dcmitype/StillImage" /></cc:Work></rdf:RDF></metadata><defs
     id="defs23" /><sodipodi:namedview
     pagecolor="#ffffff"
     bordercolor="#666666"
     borderopacity="1"
     objecttolerance="10"
     gridtolerance="10"
     guidetolerance="10"
     inkscape:pageopacity="0"
     inkscape:pageshadow="2"
     inkscape:window-width="640"
     inkscape:window-height="480"
     id="namedview21"
     showgrid="false"
     inkscape:zoom="1.6011319"
     inkscape:cx="27.321396"
     inkscape:cy="25.22325"
     inkscape:window-x="0"
     inkscape:window-y="0"
     inkscape:window-maximized="0"
     inkscape:current-layer="Layer_1" /><path
     d="m 27.949,26.657418 c 0,-0.542 -0.285,-1.04 -0.753,-1.309 l -12.469,-7.176 c -0.211,-0.124 -0.447,-0.188 -0.687,-0.198 -0.021,0 -0.111,0 -0.129,0 -0.238,0.01 -0.475,0.074 -0.688,0.198 l -12.469,7.176 c -0.465,0.269 -0.754,0.767 -0.754,1.309 l 0.027,19.322 c 0,0.269 0.14,0.519 0.376,0.65 0.231,0.139 0.517,0.139 0.748,0 l 7.41,-4.243 c 0.469,-0.278 0.754,-0.77 0.754,-1.307 v -9.027 c 0,-0.538 0.285,-1.036 0.752,-1.304 l 3.155,-1.817 c 0.235,-0.136 0.492,-0.202 0.755,-0.202 0.257,0 0.521,0.066 0.749,0.202 l 3.154,1.817 c 0.467,0.268 0.753,0.766 0.753,1.304 v 9.027 c 0,0.537 0.289,1.031 0.755,1.307 l 7.408,4.243 c 0.232,0.139 0.523,0.139 0.753,0 0.229,-0.132 0.374,-0.382 0.374,-0.65 z"
     id="path2"
     inkscape:connector-curvature="0"
     style="fill:#333333" /><path
     d="m 94.529,0.09541781 c -0.233,-0.13 -0.518,-0.127 -0.749,0.008 -0.23,0.135 -0.372,0.382 -0.372,0.649 V 19.887418 c 0,0.188 -0.101,0.362 -0.263,0.456 -0.163,0.094 -0.364,0.094 -0.527,0 l -3.123,-1.799 c -0.466,-0.269 -1.039,-0.268 -1.505,0.001 l -12.474,7.199 c -0.466,0.269 -0.753,0.766 -0.753,1.304 v 14.4 c 0,0.538 0.287,1.035 0.753,1.305 l 12.473,7.204 c 0.466,0.269 1.04,0.269 1.507,0 l 12.475,-7.204 c 0.466,-0.27 0.753,-0.767 0.753,-1.305 V 5.5534178 c 0,-0.546 -0.295,-1.049 -0.772,-1.315 z M 93.372,36.718418 c 0,0.134 -0.072,0.259 -0.188,0.326 l -4.283,2.469 c -0.116,0.067 -0.26,0.067 -0.376,0 l -4.283,-2.469 c -0.117,-0.067 -0.188,-0.191 -0.188,-0.326 v -4.945 c 0,-0.134 0.072,-0.259 0.188,-0.326 l 4.283,-2.474 c 0.117,-0.067 0.26,-0.067 0.377,0 l 4.283,2.474 c 0.116,0.067 0.188,0.192 0.188,0.326 z"
     id="path4"
     inkscape:connector-curvature="0"
     style="fill:#333333" /><path
     d="m 139.156,31.643418 c 0.464,-0.27 0.749,-0.766 0.749,-1.302 v -3.49 c 0,-0.537 -0.286,-1.033 -0.75,-1.303 l -12.394,-7.196 c -0.466,-0.271 -1.042,-0.272 -1.509,-0.002 l -12.469,7.199 c -0.466,0.269 -0.753,0.766 -0.753,1.304 v 14.397 c 0,0.541 0.291,1.041 0.761,1.309 l 12.392,7.061 c 0.457,0.261 1.017,0.264 1.477,0.008 l 7.495,-4.166 c 0.238,-0.132 0.386,-0.382 0.387,-0.653 0.002,-0.271 -0.143,-0.523 -0.378,-0.658 l -12.548,-7.202 c -0.234,-0.134 -0.378,-0.384 -0.378,-0.653 v -4.512 c 0,-0.269 0.144,-0.518 0.377,-0.652 l 3.905,-2.252 c 0.232,-0.134 0.52,-0.134 0.752,0 l 3.907,2.252 c 0.233,0.134 0.377,0.383 0.377,0.652 v 3.55 c 0,0.27 0.144,0.519 0.377,0.653 0.233,0.135 0.521,0.134 0.754,-10e-4 z"
     id="path6"
     inkscape:connector-curvature="0"
     style="fill:#333333" /><path
     d="m 50.631,18.275418 c 0.466,-0.269 1.04,-0.269 1.506,0 l 12.472,7.197 c 0.466,0.269 0.753,0.766 0.753,1.305 v 14.406 c 0,0.538 -0.287,1.035 -0.753,1.305 l -12.472,7.203 c -0.466,0.269 -1.041,0.269 -1.507,0 l -12.469,-7.203 c -0.466,-0.27 -0.753,-0.767 -0.753,-1.305 v -14.406 c 0,-0.538 0.287,-1.035 0.753,-1.304 z"
     id="path8"
     inkscape:connector-curvature="0"
     style="fill:#80bd01" /><path
     d="m 163.372,49.896418 c -0.43,0 -0.857,-0.112 -1.233,-0.33 l -3.927,-2.323 c -0.586,-0.328 -0.3,-0.444 -0.107,-0.512 0.782,-0.271 0.941,-0.334 1.775,-0.808 0.087,-0.049 0.202,-0.03 0.292,0.022 l 3.017,1.791 c 0.109,0.061 0.264,0.061 0.364,0 l 11.761,-6.788 c 0.109,-0.063 0.18,-0.188 0.18,-0.318 v -13.572 c 0,-0.133 -0.07,-0.257 -0.183,-0.324 l -11.756,-6.782 c -0.108,-0.063 -0.253,-0.063 -0.362,0 l -11.753,6.784 c -0.114,0.065 -0.186,0.193 -0.186,0.322 v 13.572 c 0,0.13 0.072,0.253 0.185,0.314 l 3.222,1.861 c 1.748,0.874 2.818,-0.155 2.818,-1.189 v -13.4 c 0,-0.189 0.152,-0.339 0.342,-0.339 h 1.491 c 0.186,0 0.341,0.149 0.341,0.339 v 13.4 c 0,2.333 -1.27,3.671 -3.482,3.671 -0.68,0 -1.215,0 -2.709,-0.736 l -3.084,-1.775 c -0.762,-0.44 -1.233,-1.264 -1.233,-2.146 v -13.572 c 0,-0.882 0.472,-1.705 1.233,-2.144 l 11.761,-6.796 c 0.744,-0.421 1.733,-0.421 2.472,0 l 11.76,6.796 c 0.762,0.44 1.235,1.262 1.235,2.144 v 13.572 c 0,0.882 -0.474,1.702 -1.235,2.146 l -11.76,6.79 c -0.377,0.218 -0.803,0.33 -1.239,0.33 z"
     id="path10"
     inkscape:connector-curvature="0"
     style="fill:#80bd01" /><path
     d="m 167.005,40.546418 c -5.146,0 -6.225,-2.362 -6.225,-4.344 0,-0.188 0.151,-0.339 0.34,-0.339 h 1.52 c 0.17,0 0.311,0.122 0.338,0.288 0.229,1.548 0.914,2.329 4.026,2.329 2.478,0 3.532,-0.561 3.532,-1.875 0,-0.758 -0.299,-1.32 -4.149,-1.697 -3.218,-0.318 -5.208,-1.029 -5.208,-3.604 0,-2.373 2,-3.788 5.354,-3.788 3.768,0 5.632,1.308 5.868,4.113 0.009,0.097 -0.025,0.189 -0.09,0.262 -0.064,0.067 -0.154,0.108 -0.249,0.108 h -1.526 c -0.158,0 -0.298,-0.112 -0.33,-0.266 -0.366,-1.629 -1.257,-2.149 -3.673,-2.149 -2.705,0 -3.02,0.942 -3.02,1.648 0,0.855 0.371,1.104 4.023,1.588 3.614,0.478 5.331,1.154 5.331,3.694 0.001,2.564 -2.135,4.032 -5.862,4.032 z"
     id="path12"
     inkscape:connector-curvature="0"
     style="fill:#80bd01" /><path
     d="m 125.823,30.969418 c 0.089,-0.052 0.2,-0.052 0.289,0 l 2.394,1.381 c 0.089,0.052 0.145,0.147 0.145,0.251 v 2.764 c 0,0.103 -0.055,0.199 -0.145,0.25 l -2.394,1.381 c -0.089,0.052 -0.2,0.052 -0.289,0 l -2.392,-1.381 c -0.089,-0.052 -0.145,-0.147 -0.145,-0.25 v -2.764 c 0,-0.104 0.055,-0.199 0.145,-0.251 z"
     id="path14"
     inkscape:connector-curvature="0"
     style="fill:#80bd01" /><g
     id="g18"
     transform="translate(-1.096,-1.8355822)"><path
       d="m 186.841,23.632 c 0,1.247 -1.02,2.267 -2.267,2.267 -1.235,0 -2.267,-1.007 -2.267,-2.267 0,-1.283 1.056,-2.267 2.267,-2.267 1.224,0 2.267,0.984 2.267,2.267 z m -4.167,-0.006 c 0,1.056 0.852,1.907 1.895,1.907 1.056,0 1.907,-0.87 1.907,-1.907 0,-1.055 -0.863,-1.895 -1.907,-1.895 -1.032,0 -1.895,0.827 -1.895,1.895 z m 1.049,-1.265 h 0.876 c 0.3,0 0.888,0 0.888,0.672 0,0.468 -0.3,0.563 -0.48,0.623 0.349,0.024 0.372,0.252 0.42,0.576 0.024,0.204 0.061,0.552 0.132,0.671 h -0.539 c -0.013,-0.12 -0.097,-0.768 -0.097,-0.803 -0.035,-0.144 -0.084,-0.216 -0.264,-0.216 h -0.443 v 1.019 h -0.492 v -2.542 z m 0.48,1.115 h 0.396 c 0.323,0 0.384,-0.228 0.384,-0.359 0,-0.348 -0.24,-0.348 -0.372,-0.348 h -0.407 v 0.707 z"
       id="path16"
       inkscape:connector-curvature="0"
       style="fill:#80bd01" /></g></svg>