<?xml version="1.0" encoding="UTF-8" standalone="no"?>
<svg
   xmlns:dc="http://purl.org/dc/elements/1.1/"
   xmlns:cc="http://creativecommons.org/ns#"
   xmlns:rdf="http://www.w3.org/1999/02/22-rdf-syntax-ns#"
   xmlns:svg="http://www.w3.org/2000/svg"
   xmlns="http://www.w3.org/2000/svg"
   xmlns:sodipodi="http://sodipodi.sourceforge.net/DTD/sodipodi-0.dtd"
   xmlns:inkscape="http://www.inkscape.org/namespaces/inkscape"
   width="2498.8657"
   height="324.85254"
   viewBox="0 0 511.7677 66.56"
   preserveAspectRatio="xMidYMid"
   version="1.1"
   id="svg4"
   sodipodi:docname="oracle.svg"
   inkscape:version="0.92.4 (5da689c313, 2019-01-14)">
  <metadata
     id="metadata10">
    <rdf:RDF>
      <cc:Work
         rdf:about="">
        <dc:format>image/svg+xml</dc:format>
        <dc:type
           rdf:resource="http://purl.org/dc/dcmitype/StillImage" />
      </cc:Work>
    </rdf:RDF>
  </metadata>
  <defs
     id="defs8" />
  <sodipodi:namedview
     pagecolor="#ffffff"
     bordercolor="#666666"
     borderopacity="1"
     objecttolerance="10"
     gridtolerance="10"
     guidetolerance="10"
     inkscape:pageopacity="0"
     inkscape:pageshadow="2"
     inkscape:window-width="640"
     inkscape:window-height="480"
     id="namedview6"
     showgrid="false"
     inkscape:zoom="0.1204"
     inkscape:cx="377.33981"
     inkscape:cy="161.35254"
     inkscape:window-x="0"
     inkscape:window-y="0"
     inkscape:window-maximized="0"
     inkscape:current-layer="svg4" />
  <path
     d="m 220.91779,43.303 h 33.832 l -17.889,-28.781 -32.833,52.037 h -14.942 l 39.935,-62.508 c 1.736,-2.525 4.63,-4.051 7.84,-4.051 3.104,0 5.998,1.473 7.682,3.946 l 40.093,62.613 h -14.942 l -7.05,-11.628 h -34.253 l -7.472,-11.628 z m 155.217,11.627 V 0.631 h -12.68 v 59.614 c 0,1.631 0.631,3.21 1.841,4.42 1.21,1.21 2.841,1.894 4.63,1.894 h 57.825 l 7.472,-11.628 h -59.089 z m -209.78,-9.734 c 12.313,0 22.31,-9.944 22.31,-22.256 0,-12.313 -9.997,-22.31 -22.31,-22.31 h -55.473 v 65.93 h 12.676 v -54.3 h 41.956 c 5.893,0 10.628,4.789 10.628,10.682 0,5.892 -4.735,10.68 -10.628,10.68 l -35.747,-0.052 37.851,32.99 h 18.416 l -25.466,-21.362 h 5.788 z M 32.853792,66.559 c -18.2,0.001 -32.96999995,-14.732 -32.96999995,-32.937 0,-18.206 14.76999995,-32.99 32.96999995,-32.99 h 38.32 c 18.204,0 32.962998,14.784 32.962998,32.99 0,18.205 -14.758998,32.937 -32.963998,32.937 z m 37.468,-11.628 c 11.791,0 21.341,-9.524 21.341,-21.31 0,-11.785 -9.55,-21.361 -21.341,-21.361 h -36.62 c -11.787,0 -21.342,9.576 -21.342,21.362 0,11.785 9.555,21.309 21.341,21.309 h 36.62 z M 311.10179,66.559 c -18.204,0 -32.99,-14.732 -32.99,-32.937 0,-18.206 14.786,-32.99 32.99,-32.99 h 45.514 l -7.42,11.628 h -37.252 c -11.786,0 -21.362,9.576 -21.362,21.362 0,11.785 9.576,21.309 21.362,21.309 h 45.723 l -7.472,11.628 z m 155.06,-11.628 c -9.734,0 -17.995,-6.524 -20.52,-15.522 h 54.194 l 7.471,-11.628 h -61.665 c 2.525,-8.945 10.786,-15.521 20.52,-15.521 h 37.2 l 7.522,-11.63 h -45.565 c -18.205,0 -32.99,14.785 -32.99,32.99 0,18.206 14.785,32.938 32.99,32.938 h 39.094 l 7.471,-11.627 h -45.723 z"
     id="path2"
     inkscape:connector-curvature="0"
     style="fill:#ea1b22" />
</svg>
