<?xml version="1.0" encoding="UTF-8" standalone="no"?>
<svg
   xmlns:dc="http://purl.org/dc/elements/1.1/"
   xmlns:cc="http://creativecommons.org/ns#"
   xmlns:rdf="http://www.w3.org/1999/02/22-rdf-syntax-ns#"
   xmlns:svg="http://www.w3.org/2000/svg"
   xmlns="http://www.w3.org/2000/svg"
   xmlns:sodipodi="http://sodipodi.sourceforge.net/DTD/sodipodi-0.dtd"
   xmlns:inkscape="http://www.inkscape.org/namespaces/inkscape"
   width="2499.491"
   height="2134.2031"
   viewBox="0 0 255.94788 218.58691"
   preserveAspectRatio="xMinYMin meet"
   version="1.1"
   id="svg20"
   sodipodi:docname="redis.svg"
   inkscape:version="0.92.4 (5da689c313, 2019-01-14)">
  <metadata
     id="metadata26">
    <rdf:RDF>
      <cc:Work
         rdf:about="">
        <dc:format>image/svg+xml</dc:format>
        <dc:type
           rdf:resource="http://purl.org/dc/dcmitype/StillImage" />
      </cc:Work>
    </rdf:RDF>
  </metadata>
  <defs
     id="defs24" />
  <sodipodi:namedview
     pagecolor="#ffffff"
     bordercolor="#666666"
     borderopacity="1"
     objecttolerance="10"
     gridtolerance="10"
     guidetolerance="10"
     inkscape:pageopacity="0"
     inkscape:pageshadow="2"
     inkscape:window-width="640"
     inkscape:window-height="480"
     id="namedview22"
     showgrid="false"
     inkscape:zoom="0.10986965"
     inkscape:cx="294.32203"
     inkscape:cy="1065.9054"
     inkscape:window-x="0"
     inkscape:window-y="0"
     inkscape:window-maximized="0"
     inkscape:current-layer="svg20" />
  <path
     d="m 245.97,168.35898 c -13.662,7.121 -84.434,36.22 -99.501,44.075 -15.067,7.856 -23.437,7.78 -35.34,2.09 -11.902,-5.69 -87.216,-36.112 -100.783,-42.597 -6.78,-3.24 -10.346,-5.976 -10.346,-8.56 v -25.876 c 0,0 98.05,-21.345 113.879,-27.024 15.828,-5.679 21.32,-5.884 34.79,-0.95 13.472,4.936 94.018,19.468 107.331,24.344 l -0.006,25.51 c 0.002,2.558 -3.07,5.364 -10.024,8.988"
     id="path2"
     inkscape:connector-curvature="0"
     style="fill:#912626" />
  <path
     d="m 245.965,142.63598 c -13.661,7.118 -84.431,36.218 -99.498,44.072 -15.066,7.857 -23.436,7.78 -35.338,2.09 -11.903,-5.686 -87.214,-36.113 -100.78,-42.594 -13.566,-6.485 -13.85,-10.948 -0.524,-16.166 13.326,-5.22 88.224,-34.605001 104.055,-40.284001 15.828,-5.677 21.319,-5.884 34.789,-0.948 13.471,4.934 83.819,32.935001 97.13,37.810001 13.316,4.881 13.827,8.9 0.166,16.02"
     id="path4"
     inkscape:connector-curvature="0"
     style="fill:#c6302b" />
  <path
     d="m 245.97,126.48998 c -13.662,7.122 -84.434,36.22 -99.501,44.078 -15.067,7.853 -23.437,7.777 -35.34,2.087 -11.903,-5.687 -87.216,-36.112 -100.783,-42.597 C 3.566,126.81798 0,124.08598 0,121.50098 V 95.621979 c 0,0 98.05,-21.344 113.879,-27.023 15.828,-5.679 21.32,-5.885 34.79,-0.95 13.473,4.935 94.019,19.464 107.331,24.341 l -0.006,25.513001 c 0.002,2.557 -3.07,5.363 -10.024,8.987"
     id="path6"
     inkscape:connector-curvature="0"
     style="fill:#912626" />
  <path
     d="m 245.965,100.76698 c -13.661,7.12 -84.431,36.218 -99.498,44.075 -15.066,7.854 -23.436,7.777 -35.338,2.087 -11.903,-5.686 -87.214,-36.112 -100.78,-42.594 -13.566,-6.483001 -13.85,-10.947001 -0.524,-16.167001 13.326,-5.217 88.225,-34.604 104.055,-40.282 15.828,-5.678 21.319,-5.884 34.789,-0.949 13.471,4.934 83.819,32.933 97.13,37.81 13.316,4.88 13.827,8.9 0.166,16.020001"
     id="path8"
     inkscape:connector-curvature="0"
     style="fill:#c6302b" />
  <path
     d="m 245.97,83.068979 c -13.662,7.12 -84.434,36.220001 -99.501,44.078001 -15.067,7.854 -23.437,7.777 -35.34,2.087 C 99.226,123.54698 23.913,93.120979 10.346,86.638979 3.566,83.395979 0,80.662979 0,78.080979 v -25.88 c 0,0 98.05,-21.343 113.879,-27.021 15.828,-5.68 21.32,-5.884 34.79,-0.95 13.473,4.935 94.019,19.464 107.331,24.341 l -0.006,25.512 c 0.002,2.555 -3.07,5.361 -10.024,8.986"
     id="path10"
     inkscape:connector-curvature="0"
     style="fill:#912626" />
  <path
     d="m 245.965,57.345979 c -13.661,7.12 -84.431,36.22 -99.498,44.074001 -15.066,7.854 -23.436,7.777 -35.338,2.09 C 99.227,97.819979 23.915,67.395979 10.35,60.912979 c -13.567,-6.482 -13.85,-10.947 -0.525,-16.166 13.326,-5.218 88.225,-34.601 104.055,-40.2810004 15.828,-5.679 21.319,-5.883 34.789,-0.948 13.471,4.935 83.819,32.9340004 97.13,37.8110004 13.316,4.876 13.827,8.897 0.166,16.017"
     id="path12"
     inkscape:connector-curvature="0"
     style="fill:#c6302b" />
  <path
     d="m 159.283,32.172979 -22.01,2.285 -4.927,11.856 -7.958,-13.23 -25.415,-2.284 18.964,-6.839 -5.69,-10.498 17.755,6.944 16.738,-5.48 -4.524,10.855 17.067,6.391 m -28.251,57.518 -41.077,-17.037 58.86,-9.035 -17.783,26.072 m -56.95,-50.928 c 17.375,0 31.46,5.46 31.46,12.194 0,6.736 -14.085,12.195 -31.46,12.195 -17.375,0 -31.46,-5.46 -31.46,-12.195 0,-6.734 14.085,-12.194 31.46,-12.194"
     id="path14"
     inkscape:connector-curvature="0"
     style="fill:#ffffff" />
  <path
     d="m 185.295,35.413979 34.836,13.766 -34.806,13.753 -0.03,-27.52"
     id="path16"
     inkscape:connector-curvature="0"
     style="fill:#621b1c" />
  <path
     d="m 146.755,50.658979 38.54,-15.245 0.03,27.519 -3.779,1.478 -34.791,-13.752"
     id="path18"
     inkscape:connector-curvature="0"
     style="fill:#9a2928" />
</svg>
