<?xml version="1.0" encoding="UTF-8" standalone="no"?>
<svg
   xmlns:dc="http://purl.org/dc/elements/1.1/"
   xmlns:cc="http://creativecommons.org/ns#"
   xmlns:rdf="http://www.w3.org/1999/02/22-rdf-syntax-ns#"
   xmlns:svg="http://www.w3.org/2000/svg"
   xmlns="http://www.w3.org/2000/svg"
   xmlns:sodipodi="http://sodipodi.sourceforge.net/DTD/sodipodi-0.dtd"
   xmlns:inkscape="http://www.inkscape.org/namespaces/inkscape"
   width="2500.0002"
   height="2373.3789"
   viewBox="0 0 256.00002 243.01488"
   preserveAspectRatio="xMidYMid"
   version="1.1"
   id="svg4"
   sodipodi:docname="redux.svg"
   inkscape:version="0.92.4 (5da689c313, 2019-01-14)">
  <metadata
     id="metadata10">
    <rdf:RDF>
      <cc:Work
         rdf:about="">
        <dc:format>image/svg+xml</dc:format>
        <dc:type
           rdf:resource="http://purl.org/dc/dcmitype/StillImage" />
      </cc:Work>
    </rdf:RDF>
  </metadata>
  <defs
     id="defs8" />
  <sodipodi:namedview
     pagecolor="#ffffff"
     bordercolor="#666666"
     borderopacity="1"
     objecttolerance="10"
     gridtolerance="10"
     guidetolerance="10"
     inkscape:pageopacity="0"
     inkscape:pageshadow="2"
     inkscape:window-width="640"
     inkscape:window-height="480"
     id="namedview6"
     showgrid="false"
     inkscape:zoom="0.09903483"
     inkscape:cx="189.76683"
     inkscape:cy="1181.9727"
     inkscape:window-x="0"
     inkscape:window-y="0"
     inkscape:window-maximized="0"
     inkscape:current-layer="svg4" />
  <path
     d="m 177.38099,169.7234 c 9.447,-0.978 16.614,-9.122 16.288,-18.896 -0.325,-9.773 -8.47,-17.592 -18.243,-17.592 h -0.651 c -10.1,0.326 -17.918,8.796 -17.592,18.895 0.326,4.887 2.28,9.122 5.212,12.054 -11.076,21.828 -28.016,37.791 -53.426,51.148 -17.266002,9.122 -35.183002,12.38 -53.100002,10.1 -14.66,-1.955 -26.062,-8.47 -33.23,-19.222 -10.424,-15.963 -11.401,-33.23 -2.605,-50.496 6.19,-12.38 15.962,-21.502 22.152,-26.063 -1.303,-4.235 -3.258,-11.402 -4.235,-16.614 -47.2369997,34.207 -42.3499997,80.468 -28.0159997,102.295 10.7499997,16.29 32.5769997,26.389 56.6839997,26.389 6.515,0 13.03,-0.652 19.546,-2.28 41.699002,-8.145 73.299002,-32.905 91.216002,-69.718 z m 57.336,-40.397 c -24.759,-28.995 -61.245,-44.958 -102.944,-44.958 h -5.212 c -2.932,-5.864 -9.122,-9.774 -15.963,-9.774 h -0.652 c -10.098002,0.326 -17.916002,8.796 -17.591002,18.896 0.326,9.773 8.470002,17.592 18.243002,17.592 h 0.651 c 7.167,-0.326 13.357,-4.887 15.963,-11.077 h 5.864 c 24.759,0 48.214,7.167 69.39,21.176 16.288,10.751 28.016,24.76 34.531,41.7 5.538,13.683 5.212,27.04 -0.652,38.443 -9.121,17.266 -24.432,26.714 -44.63,26.714 -13.031,0 -25.41,-3.91 -31.926,-6.842 -3.583,3.258 -10.099,8.47 -14.66,11.729 14.009,6.515 28.343,10.099 42.025,10.099 31.274,0 54.404,-17.267 63.2,-34.533 9.447,-18.896 8.795,-51.474 -15.637,-79.165 z m -165.492002,45.934 c 0.326,9.774 8.47,17.592 18.243,17.592 h 0.652 c 10.099,-0.325 17.917002,-8.796 17.591002,-18.895 -0.325,-9.774 -8.470002,-17.592 -18.243002,-17.592 h -0.651 c -0.652,0 -1.63,0 -2.28,0.325 -13.357,-22.153 -18.895,-46.26 -16.94,-72.323 1.302,-19.547 7.818,-36.488 19.22,-50.497 9.447,-12.054 27.690002,-17.918 40.070002,-18.243 34.531,-0.652 49.19,42.351 50.168,59.618 4.235,0.977 11.402,3.258 16.289,4.887 -3.91,-52.776 -36.487,-80.142 -67.76,-80.142 -29.320002,0 -56.359002,21.176 -67.110002,52.451 -14.985,41.7 -5.212,81.771 13.031,113.372 -1.628,2.28 -2.606,5.864 -2.28,9.448 z"
     id="path2"
     inkscape:connector-curvature="0"
     style="fill:#764abc" />
</svg>
